<svg xmlns="http://www.w3.org/2000/svg" xmlns:xlink="http://www.w3.org/1999/xlink" preserveAspectRatio="xMidYMid" width="34.656" height="23.35" viewBox="0 0 34.656 23.35">
  <defs>
    <style>
      .cls-1 {
        fill: #fff;
        fill-rule: evenodd;
      }
    </style>
  </defs>
  <path d="M17.169,23.332 C6.543,23.332 0.006,11.673 0.006,11.673 C0.006,11.673 6.606,0.015 17.169,0.015 C27.169,0.015 34.649,11.673 34.649,11.673 C34.649,11.673 27.106,23.332 17.169,23.332 ZM17.262,6.447 C14.369,6.447 12.023,8.793 12.023,11.686 C12.023,14.579 14.369,16.925 17.262,16.925 C20.155,16.925 22.501,14.579 22.501,11.686 C22.501,8.793 20.155,6.447 17.262,6.447 ZM17.294,14.282 C15.854,14.282 14.687,13.115 14.687,11.675 C14.687,10.235 15.854,9.067 17.294,9.067 C18.734,9.067 19.901,10.235 19.901,11.675 C19.901,13.115 18.734,14.282 17.294,14.282 Z" class="cls-1"/>
</svg>
